<svg width="122" height="28" viewBox="0 0 122 28" fill="none" xmlns="http://www.w3.org/2000/svg">
<path d="M118.45 3.51792V10.0513H120.867V13.2103H118.45V19.0974C118.45 19.6718 118.601 20.1025 118.903 20.3897C119.205 20.6769 119.659 20.8205 120.263 20.8205C120.565 20.8205 122 20.8205 122 20.8205V24.5538C122 24.5538 119.356 24.5538 118.978 24.5538C117.77 24.5538 116.259 24.3385 115.201 23.4051C114.144 22.4718 113.691 21.2513 113.691 19.5282V13.1385H111.5V9.97947H113.691V3.51792H118.45ZM104.324 24.841C102.133 24.841 100.244 24.1231 98.96 22.8308C97.6001 21.5385 96.9958 19.8154 96.9958 17.8051V17.3026C96.9958 15.0769 97.6001 13.282 98.8088 11.8462C100.017 10.4821 101.755 9.7641 104.021 9.7641C106.061 9.7641 107.723 10.3384 108.856 11.4872C110.065 12.7077 110.593 14.2872 110.593 16.2975V18.6666H101.906V18.7384C101.982 19.5282 102.359 20.0308 102.888 20.5333C103.417 21.0359 104.172 21.2513 105.003 21.2513C105.91 21.2513 106.59 21.1795 107.119 21.0359C107.647 20.8923 108.403 20.6769 109.158 20.318L110.291 23.1179C109.611 23.6205 108.78 23.9795 107.723 24.3385C106.665 24.6974 105.457 24.841 104.324 24.841ZM103.946 13.2103C103.266 13.2103 102.737 13.4256 102.435 13.9282C102.133 14.4308 101.906 15.0769 101.83 15.7949L101.906 15.8667H105.985V15.5077C105.985 14.7179 105.834 14.2154 105.532 13.8564C105.079 13.3539 104.625 13.2103 103.946 13.2103ZM88.3841 24.841C86.1934 24.841 84.3046 24.1231 83.0206 22.8308C81.7366 21.5385 81.0564 19.8154 81.0564 17.8051V17.3026C81.0564 15.0769 81.6607 13.282 82.8694 11.8462C84.078 10.4821 85.8156 9.7641 88.0817 9.7641C90.1217 9.7641 91.7835 10.3384 92.9168 11.4872C94.0496 12.6359 94.6539 14.2872 94.6539 16.2975V18.6666H85.9668V18.7384C86.0422 19.5282 86.4199 20.0308 86.9489 20.5333C87.4774 21.0359 88.2329 21.2513 89.0638 21.2513C89.9705 21.2513 90.6502 21.1795 91.1792 21.0359C91.7081 20.8923 92.4631 20.6769 93.2187 20.318L94.352 23.1179C93.6718 23.6205 92.8409 23.9795 91.7835 24.3385C90.8014 24.6974 89.5927 24.841 88.3841 24.841ZM88.0817 13.2103C87.402 13.2103 86.8731 13.4256 86.5712 13.9282C86.2687 14.4308 86.0422 15.0769 85.9668 15.7949L86.0422 15.8667H90.1217V15.5077C90.1217 14.7179 89.9705 14.2154 89.6681 13.8564C89.215 13.3539 88.7619 13.2103 88.0817 13.2103ZM73.9558 18.3795L75.6175 9.90771H79.9231L76.4484 24.482H72.4447L69.9521 16.7282H69.8762L67.3836 24.482H63.3799L59.8293 9.97947H64.2108L65.8725 18.5231H65.9479L68.3657 9.97947H71.3873L73.9558 18.3795ZM53.9368 20.3897C53.9368 20.0307 53.7103 19.6718 53.2572 19.3846C52.8041 19.0974 52.0485 18.8102 50.9152 18.5949C49.1778 18.2359 47.818 17.7334 46.9115 17.0872C46.0051 16.3693 45.5518 15.4359 45.5518 14.2154C45.5518 12.9231 46.1561 11.8462 47.2137 10.9128C48.3468 9.97947 49.8578 9.62049 51.7461 9.62049C53.7103 9.62049 55.372 10.0513 56.5053 10.9128C57.714 11.7744 58.2429 12.8513 58.1671 14.2872V14.359H53.6349C53.6349 13.7846 53.4837 13.3538 53.1813 13.0667C52.8794 12.7795 52.3504 12.6359 51.7461 12.6359C51.2176 12.6359 50.8399 12.7795 50.4621 13.0667C50.0843 13.3538 49.9331 13.641 49.9331 14.0718C49.9331 14.5026 50.1597 14.7897 50.5375 15.0769C50.9152 15.3641 51.7461 15.5795 52.8794 15.7949C54.6924 16.1538 56.1275 16.6564 56.9584 17.3026C57.8652 18.0205 58.3183 18.9539 58.3183 20.2462C58.3183 21.5385 57.714 22.6154 56.5053 23.4769C55.2967 24.3385 53.7103 24.7692 51.7461 24.7692C49.7066 24.7692 48.0447 24.2667 46.836 23.2615C45.6273 22.2564 45.0985 21.1795 45.1741 19.8872V19.8154H49.48C49.48 20.5333 49.7066 21.0359 50.1597 21.2513C50.6133 21.4666 51.2176 21.7539 51.8973 21.7539C52.577 21.7539 53.0306 21.6103 53.3325 21.3949C53.7856 21.1795 53.9368 20.8205 53.9368 20.3897ZM33.3895 9.90771L33.5406 11.918C34.0694 11.2 34.6738 10.6257 35.3536 10.2667C36.1091 9.83591 36.8644 9.62049 37.771 9.62049C39.2063 9.62049 40.4149 10.1231 41.2459 10.9846C42.0769 11.8462 42.5301 13.3538 42.5301 15.3641V24.482H37.922V15.4359C37.922 14.5744 37.771 14.0718 37.3933 13.7128C37.0155 13.3538 36.4867 13.2103 35.8069 13.2103C35.3536 13.2103 34.9759 13.2821 34.5982 13.4256C34.2205 13.5692 33.9183 13.7846 33.6917 14.0718V24.5538H29.0081V9.97947H33.3895V9.90771ZM26.1375 7.1795H21.3784V3.51792H26.1375V7.1795ZM26.1375 24.5538H21.3784V9.97947H26.1375V24.5538ZM10.9536 24.5538V13.0667H8.76288V9.90771H10.9536V8.4C10.9536 6.74872 11.4824 5.45642 12.4644 4.5231C13.522 3.58978 15.1084 3.37436 16.2415 3.37436C16.6193 3.37436 19.2632 3.37436 19.2632 3.37436V7.03589C19.2632 7.03589 17.8279 7.03589 17.5257 7.03589C16.9214 7.03589 16.4681 7.1795 16.166 7.46668C15.8638 7.75385 15.7127 8.18463 15.7127 8.75897V9.83591H18.6589V12.9949H15.7127V24.4102H10.9536V24.5538ZM1.88855 4.73847C1.88855 0.358978 4.30588 0 8.38517 0V3.44617C6.4966 3.44617 5.74118 3.73334 5.74118 4.81027V10.4821C5.74118 11.7744 5.81673 13.1385 4.68359 14C5.81673 14.8615 5.74118 16.1538 5.74118 17.5179V23.1897C5.74118 24.3385 6.4966 24.5538 8.38517 24.5538V28C4.30588 28 1.88855 27.641 1.88855 23.2615V17.5179C1.88855 16.5846 1.88855 15.5795 0 15.5795V14.0718V12.5641C1.88855 12.5641 1.88855 11.4872 1.88855 10.6257V4.73847Z" fill="#063255"/>
</svg>
